<svg version="1.1" xmlns="http://www.w3.org/2000/svg" xmlns:xlink="http://www.w3.org/1999/xlink" x="0px" y="0px"
	viewBox="0 0 450 700" width="450" height="700" enable-background="new 0 0 450 700" xml:space="preserve">
		<path id="XMLID_208_" fill="#010101" d="M372.6,180.5c0.2,1.4-2,2.3-2.9,1.2c-0.7-1.1,1.5-1.8,2.4-0.9L372.6,180.5z"/>
	<path id="XMLID_207_" fill="#010101" d="M71.4,392.6c-0.5,1.1-2,1.5-2.9,0.9c-0.3-1.6,2.6-2.4,3.2-0.9L71.4,392.6z"/>
	<path id="XMLID_199_" fill="#010101" d="M83.6,183.9c1.2,0.1,2.2,1.1,2.3,2.3c-1.2,1.3-3.7-1.1-2.4-2.3L83.6,183.9z"/>
	<path id="XMLID_192_" fill="#010101" d="M341.6,587.6c-0.3-0.9,1.1-1.3,2-1.1c0.7,1.1-0.3,2.8-1.6,2.8
			C341.2,589.2,341,588,341.6,587.6L341.6,587.6z"/>
	<path id="XMLID_188_" fill="#010101" d="M87.8,552.3c-1.5,0-3,0-4.6,0c-0.4-0.6-0.5-1.3-0.4-2c1.4-0.4,2.8-0.5,4.2-0.3
			c0.3,0.7,0.6,1.5,0.8,2.2L87.8,552.3z"/>
	<path id="XMLID_186_" fill="#010101" d="M63.1,269.9c2.1,0.4,3.5,2.9,2.7,4.9c-1.8-0.7-3-2.8-2.7-4.7L63.1,269.9z"/>
	<path id="XMLID_64_" fill="#010101" d="M407.7,456.5c5.4-9,6.6-22,0.9-30c-0.6-1.7-1.7-3.4-2.9-4.4c-0.9-0.7-1.8-1.4-2.6-2.1
			c-0.4-0.4-0.8-0.7-1.2-1c2.4-1.1,4.5-3.1,5.6-5.4c2.5-5.1,1.8-11,0.8-16.6c-1.6-8.7-4.1-17.6-9.8-24.5c-5.6-6.9-15-11.3-23.5-8.9
			c-9.2,2.6-14.9,12.4-15.5,21.9c-0.6,9.5,3,18.8,7.2,27.4c1,2.1,2.1,4.3,2.2,6.7c0,2.1-0.8,4.2-1.5,6.2c-3.5,9.5-4.8,19.7-4.1,29.8
			c0.4,4.9,2.8,10.8,6.5,13.2c-0.6,0.6-1.2,1.5-1.8,2.1c-1.2,1.2-2.5,2.3-3.6,3.6c-5,4.6-6.7,12.7-7.1,19.9
			c-0.5,8.9-0.8,18.9-7.3,24.9c-9.4,8.5-15.3,20.7-16.3,33.3c-0.4,4.8-0.9,10.9-5.5,12.3c-16.4,5.2-26.6,24.8-21.3,41.2
			c-8.6-1-20.5,0.4-21.6,9c-0.4,3.3,1.1,6.5,0.9,9.8c-0.1,2.3-1.9,4.8-4,5.4c-1.4-1.1-2.7-2.2-4.5-2.8c-1.3-0.4-1.7-0.9-2.4-1.7
			c0.1,0,0.2,0,0.3,0.1c-1.4-4.1-8-3.8-10.7-0.3c-2.7,3.4-2.7,8.2-2.9,12.5c-0.2,4.4-1,9.2-4.5,11.8c-2.2-4.9-4.5-10-8.7-13.3
			S238,632,234,635.6c-5.2,4.7-2.9,13.6-6.3,19.8c-4.4-1.8-5.7-7.3-7-11.9c-1.3-4.6-4.6-9.9-9.4-9.1c-2.6,0.4-4.4,2.6-6.1,4.6
			c-4.8,5.8-9.5,11.6-14.3,17.4c-4.6-9,3.5-22.7-4.5-29c-6.7-5.2-15.8,1.6-21.4,7.9c1-5.8,2.1-11.8,0.3-17.4
			c-1.8-5.6-7.4-10.4-13.1-9.2c-5.6,1.2-8.2-6.7-8.1-12.4c0.1-4.8-0.7-11.1-4.4-13.2c-1.3-1.9-2.7-3.8-4-5.7c-1.7-2.5-3.2-4.2-6-5.6
			c0,0-0.1,0-0.1,0c-3.4-2.8-7.7-4.4-12-4.4c3.2-16.9-5.5-35.3-20.6-43.5c4.2-10.4,2.9-22.8-3-32.3c-3.1-5.8-7.1-11.1-12.4-14.8
			c3.8-12.1,5.3-24.8,4.6-37.5c-0.2-2.9-0.8-6.2-2.4-8.6c-0.4-1.2-1-2.3-1.9-3.1c-1.1-0.9-2.6-1.6-4.1-2.1c1.1-0.7,2.1-1.6,2.9-2.6
			c3-3.6,4.3-8.2,5.4-12.7c2.4-9.5,4.5-19.9,0.6-28.9c-3.2-7.3-10.3-12.7-18.2-13.8s-16.2,2.2-21.3,8.3c-4.6,5.6-6.4,13.1-7.9,20.2
			c-2.1,9.3-3.3,20.9,4.5,26.4c2,1.4,1.7,4.7,0.3,6.7s-3.6,3.5-5.1,5.5c-2.6,3.6-2.5,8.5-2,13c1.5,12.7,5.6,25.1,11.8,36.3
			c-0.4,0.7-0.9,1.3-1.2,2c-0.8,1.5-1,3.2-1.1,4.8c-0.8,3.2-0.2,6.9,0.5,10.2c3,14.2,8.1,30.9,21.9,35.3c-5,5.4-2.4,14,0.5,20.8
			c2.7,6.4,5.5,12.9,10.3,18c4.8,5,12.1,8.3,18.7,6.4c-4,19.4,13.3,40,33,40.1c-1.1,2.1-2.1,4.2-3.1,6.4c-0.2,0.4-0.1,0.8,0.1,1.1
			c-2.2,6.2,0.8,14.6,7.4,16.3c7.7,2,18.2-2.8,22.3,3.9c5.4,9,15.4,15,25.9,15.7c-0.2-0.2-0.5-0.3-0.7-0.5c1,0.1,2,0.2,3,0.2
			c1.5,0.1,2.8,0.2,4.1-0.6c6.6,5.3,15.8,7.3,24,5.3c2.2,0,4.3,0.2,6.5-0.2c2.3-0.4,4.4-1,6.3-2.3c8.3,3.6,18.2,3.2,26.2-1
			c0.3-0.1,0.5-0.1,0.8-0.2c1.3-0.3,2.5-0.6,3.5-1.5c0.2-0.2,0.3-0.5,0.3-0.7c1.2-0.9,2.3-1.8,3.5-2.7c13.1,6.3,31.1-2.4,34.2-16.7
			c7.4,3.6,17.1,1.8,22.7-4.2c5.6-6,6.8-15.8,2.7-22.9c19.4-1.8,35.2-21.6,32.6-40.9c21.2-5.9,36-29.1,32.3-50.8
			c9.8-4.6,14.6-15.7,18.6-25.8c3.1-7.9,5.7-17.9-0.4-23.8C399.1,470.9,404,462.6,407.7,456.5z M40.6,410c-1-1.9-0.5-4.3,0-6.4
			c1.1-4.4,2.2-8.8,3.3-13.2c1.5-5.8,3.3-12.1,8.1-15.6c1.4-1,2.9-1.7,4.5-2.2c7.1-2.5,15.4-1.7,21.5,2.7c6.1,4.4,9.5,12.5,7.6,19.7
			c-1.5,6-0.9,12.3-2.8,18.2c-1.9,5.8-7.9,11.3-13.7,9.2c-7.2-2.5-16.2,4.1-22.4-0.4C43.1,419.3,42.8,414,40.6,410z M45.6,471.3
			c-1.3-5-2.5-10.1-3.8-15.1c-1-3.8-1.9-7.7-1.8-11.6c0.3-6.5,3.9-12.8,9.5-16.3c5.5-3.5,12.8-4,18.8-1.5c2.1,0.9,4.5,0.8,6.7,0
			c1.8,0.3,3.9,1,5.3,2c3.9,11.8,4.2,24.7,1,36.6c-0.6,2.2-1.4,4.6-3.2,6c-1.5,1.3-3.5,1.7-5.5,2.1c-6.8,1.5-13.7,3-20.5,4.5
			C48.6,479,46.5,474.7,45.6,471.3z M63.2,530c-3.3-1.7-5.2-5.3-6.6-8.7c-4.3-9.8-7-20.3-8.1-31c0.1-1,0.2-2.1,0.7-3
			c0.4-0.9,1.1-1.7,1.6-2.6c0.2-0.1,0.4-0.1,0.6-0.3c0.4-0.2,0.5-0.6,0.4-1c8-4.9,17.7-7.1,27-6.1c0,0,0,0,0,0
			c7.9,4.7,12.8,13.2,16.4,21.4c0,0.1,0.1,0.2,0.2,0.2c0.9,3.1,1.4,6.2,1.3,9.4c-0.1,7.2-4.2,14.8-11.1,16.8
			C78,527.3,70.2,533.6,63.2,530z M89.1,577.8c-6.7-1.7-10.3-8.7-13.2-15c-1.4-3-2.7-6.1-4.1-9.1c-1.7-3.8-3.4-7.8-2.7-11.9
			c0.7-3.9,3.5-7.2,6.9-9.3c3.4-2.1,7.2-3.2,11-4.3c2.1-0.6,4.3-1.2,6.5-1.1c4,0.2,7.5,2.6,10.3,5.4c6.6,6.5,10.6,15.4,11.1,24.6
			c0.1,2.6,0,5.2-1.1,7.5c-1.3,2.7-3.8,4.5-6.1,6.3C102.3,575.2,95.8,579.5,89.1,577.8z M120.8,616.5c-7.1-1.9-12.8-7.5-16.2-14
			c-3-5.7-4.5-12.3-3-18.6c1.5-6.2,6.4-11.8,12.7-13c6.2-1.2,12.2,1.8,17.6,5.1c1.1,1.2,2.1,2.6,3.1,4.1c1.2,1.7,2.3,3.4,3.5,5
			c3.6,8,6.2,17.3,1.6,24.6C136.4,615.9,127.9,618.4,120.8,616.5z M150.4,642.4c-5.6,2-12.3,1.4-16.7-2.6c-3-2.7-4.5-7-3.9-10.9
			c0,0,0,0,0,0c1.3-2.7,2.6-5.4,4-8c3.6-4.3,7.6-8.8,13.1-9.8c7.7-1.5,15.6,5.5,16.1,13.3C163.7,632.3,157.9,639.8,150.4,642.4z
			 M184.5,662.6c-1.6-0.1-3.2-0.3-4.8-0.4c-5.9-3.9-11.8-7.7-17.6-11.6c-1.4-0.9-3-2-3.4-3.7c-0.6-2.6,1.7-4.8,3.8-6.4
			c3.9-2.9,7.8-5.9,11.7-8.8c2.2-1.7,4.7-3.4,7.5-3c4.8,0.7,6,7.1,6,12c0,7.1,0,14.1,0.1,21.2c0.3,0.3,0.6,0.6,0.9,0.9
			C187.4,663,185.8,662.7,184.5,662.6z M212.9,667.5C212.9,667.5,212.8,667.5,212.9,667.5c-7.3-0.3-14.5-2.1-21-5.4
			c4.7-8,10.1-15.6,16.1-22.7c0.9-1,2-2.2,3.3-2.1c1.3,0,2.4,1.2,3.2,2.3c5.6,7.7,9.2,16.8,10.3,26.3c0.1,0,0.1,0.1,0.2,0.1
			C221.2,667.9,217.1,667.3,212.9,667.5z M257.1,662.6c-0.3-0.1-0.6,0-0.9,0.2c-1,0.9-2.6,1-3.8,1.3c-0.4,0.1-0.8,0.3-1.3,0.4
			l-12.4,1c-3.6,0.3-8.3-0.1-9.4-3.5c-0.6-1.7,0.1-3.6,0.7-5.3c1.7-4.7,3.5-9.5,5.2-14.2c1.3-3.6,4-7.9,7.7-6.9
			c1.4,0.4,2.5,1.5,3.4,2.6C252.6,645.1,259.2,654,257.1,662.6z M366.7,407.2c-2.7-7.6-5.5-15.8-3.5-23.6c0.6-2.6,1.8-5.1,2.1-7.7
			c0.4-3.1,2.8-5.8,5.7-7.2c2.8-1.4,6.1-1.8,9.3-1.8c5.7,0,11.8,1.4,15.8,5.4c5.1,5.2,5.6,13.2,7.5,20.3c0.9,3.4,2.2,6.7,2.8,10.2
			s0.2,7.3-1.9,10.1c-2.1,2.8-6.3,4.2-9.3,2.3c-7-4.4-17.3,4.1-24-0.7C368.8,412.8,367.7,409.9,366.7,407.2z M368.9,463.2
			c-1.7-1.9-2-4.6-2.2-7.2c-0.8-9.6-1.5-19.8,2.9-28.3s15.9-14.2,24-9c1.8,1.2,4,1.4,6.1,0.9c1.4,1.1,2.5,2.3,3.9,3.3
			c1.5,1.1,3.2,2.9,3.4,4.8c0.1,0.4,0.3,0.7,0.6,0.8c3.2,9.3-0.5,21.4-4.7,31.2c-1.8,4.2-6.5,9.1-9.8,6
			C386.9,460.1,374.5,469.6,368.9,463.2z M285,655.6c-4.7,3.2-10.7,3.7-16.3,4.2c-1.5,0.1-3.2,0.2-4.5-0.7c-1.9-1.4-1.7-4.2-1.3-6.5
			c1.3-8.2,2.6-16.5,3.8-24.7c1.6-1.4,3.7-2.3,5.8-2.5c1.3,0.9,1.7,2.6,3.2,3.3c0.9,0.5,2,0.5,2.9,1c0.5,0.3,1.1,0.7,1.6,1.1
			c1.7,4.1,7.2,6,9.6,9.9C292.6,645.7,289.7,652.4,285,655.6z M311.4,641.3c-7.7,3.9-18.2,0.5-22.1-7.2c-0.7-1.4-0.8-3.1-0.8-4.6
			c0-2.8-0.1-5.5-0.1-8.3c-0.1-3.2,0-6.6,1.9-9.1c2.2-2.7,6-3.5,9.5-3.4c7.5,0.2,15.3,3.8,18.8,10.5
			C322.5,626.9,319,637.4,311.4,641.3z M349.8,590.1c-3.7,7.8-8.6,15.5-16.2,19.6c-7.6,4.1-18.5,3.1-23.2-4.2
			c-3-4.6-3-10.6-1.5-15.8c2.3-8.3,7.9-15.7,15.4-20c2.7-1.6,5.7-2.8,8.8-2.6c3.9,0.2,7.4,2.6,10.6,4.8c3.6,2.6,7.6,5.7,8.1,10.1
			C352.1,584.8,351,587.5,349.8,590.1z M382.6,543c-1.9,4.3-4.8,8.1-7.3,12.1c-3.4,5.4-6.2,11.7-11.8,14.7c-6.2,3.2-13.8,1.4-19.9-2
			c-3.5-2-6.9-4.7-8-8.6c-1.1-3.9,0.5-8.1,2-11.9c1.8-4.4,3.6-8.8,5.4-13.3c2.8-7,6.6-14.8,13.9-16.7c6.1-1.5,12.2,1.8,17.6,5
			c3.1,1.9,6.4,3.9,8.2,7C385.1,533.4,384.5,538.7,382.6,543z M397.9,508c-2.4,4.8-5.1,10-10,12.1c-5.6,2.4-12,0-17.6-2.4
			c-8-3.4-11.8-13.2-11-21.9c0.7-7.7,4.2-14.8,7.9-21.7c0.5-0.5,1-0.9,1.5-1.4c0.5-0.5,1.1-1,1.5-1.5c0.2-0.2,1.1-1.6,1.3-1.6
			c0.3,0.1,0.5,0,0.7-0.1c1,0.2,2.1,0.2,3.2-0.2c8.8-2.8,19.7-1.8,25.3,5.5C407.9,484.2,403,497.5,397.9,508z"/>
	<path id="XMLID_183_" fill="#010101" d="M378.3,306.7c1.2,0.4,1.9,1.7,1.7,2.9c-1.9,0.2-3.7-1.6-3.6-3.4c0.5-0.6,1.6-0.3,1.8,0.4
			L378.3,306.7z"/>
	<path id="XMLID_177_" fill="#010101" d="M358.7,536.6c0.7,2.3,2.4,4.2,4.7,5.2c3.3-3,6.9-6.1,11.4-6.2c-1.9,3.5-5.3,6.2-9.1,7.1
			c-3.2,0.8-4.9,4.6-4.4,7.9c0.5,3.3,2.6,6.1,4.6,8.7c-1.2,1.5-3.5-0.3-4.4-2c-0.9-1.7-2.9-3.7-4.3-2.4c-1.2-2.8,1.5-5.7,1.7-8.7
			c0.3-4.4-4.6-8.2-3.5-12.4c0.5-0.8,1.8-0.5,2.4,0.2S358.5,535.7,358.7,536.6z"/>
	<path id="XMLID_176_" fill="#010101" d="M63.1,270.1c-1.4-0.5-2.4-2.1-2.2-3.6c0.2-1.5,1.5-2.9,3-3.1c-0.2,2.2-0.5,4.4-0.9,6.7
			L63.1,270.1z"/>
	<path id="XMLID_175_" fill="#010101" d="M320.6,597.9c-0.2-1-0.3-1.9-0.5-2.9c1.7-0.7,3.5,0.6,5.3,0.9c3.5,0.6,6.7-2.8,7.3-6.3
			s-0.8-7-2.1-10.3c0.6-0.1,1.2-0.2,1.7-0.3c5.3,5.5,4,15.7-2.4,19.8c-0.6,0.4-1.3,0.8-2.1,0.8C325.4,599.9,323,596.8,320.6,597.9z"
	/>
	<path id="XMLID_174_" fill="#010101" d="M119.7,592.5c2.5-1.5,6.2-0.5,7.6,2.1C124.7,595.7,121.3,594.8,119.7,592.5z"/>
	<path id="XMLID_172_" fill="#010101" d="M389.2,304.3c1.4-0.6,2.6,1.8,1.7,3c-1,1.3-2.7,1.4-4.3,1.5c-0.6-1.8,0.9-3.9,2.8-4
			L389.2,304.3z"/>
	<path id="XMLID_167_" fill="#010101" d="M97.4,545.2c-0.7,1.1-1.4,2.1-2.1,3.2c-0.8,0.8-2.3-0.3-2.3-1.4c0-1.1,0.9-2.1,1.7-2.9
			c0.9-0.9,1.8-1.8,2.7-2.7C98.3,542.4,98.3,544.2,97.4,545.2L97.4,545.2z"/>
	<path id="XMLID_165_" fill="#010101" d="M58.9,456c-0.1-1.2-0.3-2.3-0.4-3.5c0.7-0.1,1.5-0.2,2.2-0.3c-0.4,1.4,0.2,2.9,0.8,4.3
			c0.6,1.4,1.2,2.9,0.7,4.3c-0.5,1.4-2.6,2.1-3.5,0.9C58.4,459.7,58.5,457.8,58.9,456L58.9,456z"/>
	<path id="XMLID_163_" fill="#010101" d="M59,444.6c-0.2-1.4,1.6-2.4,2.9-1.8c1.2,0.6,1.6,2.4,1,3.6c-0.6,1.3-2,2-3.3,2.3
			c-2,0.3-3.2-3.1-1.4-4.1L59,444.6z"/>
	<path id="XMLID_162_" fill="#010101" d="M378.1,510.6c0.5-3.6,0-7.3-1.3-10.7c1.9,1.7,4.9,1.8,7,0.3c2-1.5,2.8-4.5,1.7-6.8
			c2.9,1,5.9,1.8,8.9,2.3c-6,3.6-12.5,8-13.6,14.8C379.9,510.6,379,510.6,378.1,510.6z"/>
	<path id="XMLID_161_" fill="#010101" d="M66.5,229c0.7,1.9,1.4,3.8,2.1,5.7c-0.7,0.2-1.4,0.3-2.1,0.5c-1-2.7-2.1-5.4-3.1-8.1
			C64.3,226,65.9,227.6,66.5,229z"/>
	<path id="XMLID_157_" fill="#010101" d="M373.1,216.3c1.2-2.9,3.1-5.5,5.5-7.5c0.8,0,1.6,0,2.4,0
			C379.5,212.4,377,216.7,373.1,216.3z"/>
	<path id="XMLID_154_" fill="#010101" d="M63.1,219.6c-0.2,2.4-1.4,4.6-3.4,6c-1.2-0.9-0.8-2.8-0.3-4.2c1-2.8,2-5.6,3.1-8.3
			C64.3,214.7,64.6,217.8,63.1,219.6L63.1,219.6z"/>
	<path id="XMLID_150_" fill="#010101" d="M91.9,552.9c2.1,0.3,4.5,0.9,5.6,2.7c1.1,1.8-0.7,5-2.7,4c-1.9-2.4-3.9-4.8-5.8-7.2
			C90,552.6,91,552.8,91.9,552.9z"/>
	<path id="XMLID_148_" fill="#010101" d="M111.7,137.3c-3.4,0.7-6.9,0.6-10.2-0.3c-1.3-1.3-1.6-3.5-0.6-5c1.3,2,3.7,3.3,6,3.2
			c1,0,2.1-0.3,3.1-0.1C111.1,135.3,112,136.3,111.7,137.3L111.7,137.3z"/>
	<path id="XMLID_129_" fill="#010101" d="M102.5,140.9c-0.4,1.9-1,3.7-1.8,5.4c-2.4,0.3-4.7,0.6-7.1,0.9c2.5-2.7,4.9-5.4,7.4-8
			c0.2-0.5,1.1-0.5,1.4,0C102.7,139.6,102.6,140.3,102.5,140.9z"/>
	<path id="XMLID_119_" fill="#010101" d="M262.1,54.8c-4.1-0.8-8.2-2.1-12.1-3.7c-0.5-0.2-0.9-0.8-1-1.4
			C253.8,47.6,259.9,50,262.1,54.8z"/>
	<path id="XMLID_117_" fill="#010101" d="M359.4,184.9c2.1-2.4,4.2-4.8,6.3-7.2c0.1,4.3-2.2,8.6-5.9,10.8c-0.8,0.3-1.6-0.6-1.6-1.4
			C358.3,186.2,358.9,185.5,359.4,184.9z"/>
	<path id="XMLID_97_" fill="#010101" d="M77.7,167c1.7,0.3,3,1.6,4.3,2.8c2,1.9,4,3.8,6,5.8c-3.1,0.1-5.4,2.7-7.5,4.9
			c-2.1,2.2-5,4.4-8,3.6c-0.1-0.7-0.2-1.5-0.3-2.2c3.3-0.2,6.5-2.5,7.6-5.6C81,173.1,80.1,169.3,77.7,167z"/>
	<path id="XMLID_67_" fill="#010101" d="M201.2,50.3c-6.4,2.4-13.2,3.8-20.1,4.1C186.6,49.8,194.4,48.2,201.2,50.3z"/>
	<path id="XMLID_60_" fill="#010101" d="M391.5,280.2c-1.3-2.9-4.6-4.4-7.2-6.3c-2.6-1.9-5-5.3-3.6-8.2c0.5-1,1.4-1.8,2-2.7
			c1.1-1.5,1.7-3.3,1.6-5.1c1.3,1.2,1.6,3.3,1.3,5.1c-0.3,1.8-1,3.5-1.1,5.3c-0.2,1.8,0.3,3.9,1.9,4.8c1.5,1,4.1,0,4.1-1.8
			C391.7,274.1,392.1,277.3,391.5,280.2z"/>
	<path id="XMLID_49_" fill="#010101" d="M70.8,209.5c1.2,2.9,2.5,5.9,3.7,8.8c0.3,0.7,0.6,1.4,0.5,2.1c-0.1,0.7-0.5,1.3-0.8,1.8
			c-1.2,1.8-2.4,3.6-3.6,5.4c-1.4-0.3-1.7-2.2-1.2-3.5c0.5-1.3,1.6-2.4,2-3.7c0.9-3.6-3.4-7.1-2.2-10.6
			C69.6,209.3,70.4,209.2,70.8,209.5z"/>
	<path id="XMLID_48_" fill="#010101" d="M292.7,71.3c-0.8-0.7-1.6-2.1-0.7-2.6c4.8,1.5,9,4.8,11.6,9.1c-0.4,0.6-1.1,1-1.8,1.1
			C298.8,76.3,295.7,73.8,292.7,71.3z"/>
	<path id="XMLID_46_" fill="#010101" d="M382.4,441.6c-0.7-0.5-1.3-1.3-1.4-2.1c3.8-1.8,5.5-6.9,3.7-10.6c1.3-0.9,2.4,1.3,3.6,2.3
			c1.7,1.6,4.4,0.7,6.3-0.4c2-1.2,4.1-2.6,6.3-2.1c-0.8,3-3.7,5.3-6.8,5.4c-2.8,0.1-5.1,3.1-4.5,5.8
			C387.5,438,383.5,438.9,382.4,441.6z"/>
	<path id="XMLID_44_" fill="#010101" d="M366.5,164.1c-0.4,1.3-0.7,2.6-1.4,3.8c-2.4,4.5-8.6,6.6-13.2,4.3
			c2.9-3.2,9.5-1.5,11.4-5.4c0.4-0.8,0.5-1.7,1-2.4S366,163.5,366.5,164.1z"/>
	<path id="XMLID_43_" fill="#010101" d="M392.5,251.6c-1.6,3-0.8,7.1,1.9,9.3c1.4,1.2,1.9,3.3,1.2,5c-0.8,1.7-2.8,2.7-4.6,2.3
			c1.3-2.6,1.3-5.9,0.1-8.6c-0.8-1.8-2.2-3.4-2.3-5.3C388.7,252.4,391,250.3,392.5,251.6z"/>
	<path id="XMLID_39_" fill="#010101" d="M370.9,231.8c1.5-4.6,5.7-8.2,10.5-8.9c1.6-0.2,4,0.9,3.2,2.4
			C380.1,227.5,375.5,229.6,370.9,231.8z"/>
	<path id="XMLID_35_" fill="#010101" d="M385,401c0.2-3.3-2-6.6-5.1-7.7c-0.9-0.3-2-0.5-2.8-1.1c-0.8-0.6-1.3-1.8-0.6-2.6
			c4.7-0.4,9.5,2.4,11.5,6.7c0.6,1.2,0.9,2.7,0.3,3.9C387.7,401.5,385.9,402,385,401z"/>
	<path id="XMLID_66_" fill="#010101" d="M408.9,285.8c7.9-15.8,6-38.2-9.1-47.3c7.5-16.1,2.5-37.1-11.5-48.1
			c-2.6-15.9-11.2-30.8-23.7-41.1c-3.5-2.9-3.3-8.2-3.9-12.7c-0.3-2.2-1.3-4.7-2.7-6.4c0,0,0-0.1-0.1-0.1c-0.7-1.1-1.7-2-2.6-2.8
			c-1.4-2-3.1-4-5-5.3c-0.4-0.3-0.8-0.5-1.3-0.8c0.1,0,0.3,0,0.4,0c-0.4-0.2-0.8-0.3-1.2-0.5c-0.8-0.4-1.7-0.8-2.4-1.4
			c-1.1-0.7-1.9-1.1-2.9-1.1c-1.4-0.8-2.7-1.8-3.8-3c-2.7-3-3.9-7.8-1.4-11c4-5.3,0.2-13.6-5.8-16.5s-13.1-2.1-19.7-1.2
			c3.3-3.9,3.4-9.8,1.4-14.5c-2.1-4.7-6-8.3-10.2-11.2c-8.1-5.6-17.6-9.1-27.4-10c-2.4-1.7-4.3-3.7-6.5-5.4c-2.5-1.9-5.6-3-8.4-4.3
			c-0.1,0-0.1,0-0.2,0c-12.1-6.2-27.1-6.6-39.4-0.7c-4.2,2-9-0.1-13.5-1.3c-14.4-4-31,2.2-39.3,14.6c-15.1-3.5-32.1,5.4-37.9,19.8
			c-1.4,3.4-3.4,7.8-7,7.1c-6.8-1.2-13.3,4.4-15.5,11c-2.2,6.6-1,13.7,0.4,20.5c0.6,2.8-3.4,4-6.2,4.4c-13.6,2-24.2,16.2-22.3,29.8
			c0.4,2.5,0.9,5.6-1,7.2c-8,6.9-16.4,14.4-19.6,24.5c-1.8,5.7-1.1,12.4,1.7,17.5c0,0-0.1,0-0.1,0.1c-1,0.7-2.1,1.4-3.1,2
			c-0.4,0.2-0.7,0.5-1.1,0.7c-6.1,0.9-10.5,7.4-11.6,13.7c-1.2,6.9,0.3,14.1-0.4,21.1c-1,10.4-6.6,19.8-9.9,29.7
			c-3.3,9.9-3.8,22.3,3.8,29.5c-3.6,2.2-6.3,5.9-7.2,10c-0.2,0.2-0.2,0.4-0.3,0.6c-0.2,0.2-0.3,0.4-0.3,0.7c0,2.3,0,4.6,0.8,6.8
			c0.3,6.8,3.2,13.5,7.8,18.5c0.2,0.5,0.4,0.9,0.7,1.3c0,0,0,0,0,0c1.5,2.6,3.5,4.6,6.1,6.4c2,1.4,4,3.3,6.1,4.7
			c4.3,4.6,12.1,5.7,18,3c7-3.2,11.5-10.5,13.2-18.1s1-15.4,0.3-23.1c-0.4-4.3-0.7-8.5-1.1-12.8c1.8-2.6,3.1-5.5,4-8.5
			c0.3-0.7,0.6-1.3,0.8-2c0.4-1.5,0.6-3.2,1-4.7c0.2-0.7,0.3-1.3,0.3-2c3.4-9.7-9.3-22.2-2.6-30.3c8.7-10.4,12.1-25,9-38.2l2-1.8
			c0.9-0.3,1.7-0.8,2.4-1.6c1-1.2,2.3-2,3.3-3.3c0.6-0.8,1.1-1.6,1.5-2.4c0.5-0.5,1-1,1.5-1.6c0-0.1,0.1-0.1,0.1-0.2
			c3.6-3.1,4.9-9.4,4.8-14.6c-0.2-7-0.1-15.7,6.2-18.7c11.4-5.6,16.9-21,11.4-32.5c6.1-0.7,12.5-2.7,16.2-7.6
			c6.6-8.8,1.2-21.2-4.3-30.7c9.3,2.2,16.2,12.8,25.7,11.6c6.5-0.8,11.1-7.3,11.9-13.7s-1.1-13-3.1-19.2c8.3,4.9,11.6,17,21,19.4
			c6.8,1.8,13.9-2.8,17.4-8.9c3.5-6.1,4.2-13.3,4.9-20.3c5.4,3.6,7,10.6,9,16.7c2,6.1,6,12.9,12.4,13.3c4.8,0.4,9-3,12.5-6.3
			c5.5-5.4,10.6-11.3,14.9-17.7c3,5.6,1.5,12.3,1,18.6c-0.4,6.3,1.2,13.9,7.2,16.1c7.7,2.7,14.8-6,23-6.9c-3,7.9-7.4,16.3-4.6,24.2
			c2.5,7.1,10.3,11.1,17.8,11.1c-0.7,0.9-1.3,1.9-1.5,3c-0.4,1.8-0.1,3.8-0.1,5.6c0,0.1,0,0.3,0.1,0.4c-1,9.7,7,19.7,16,25
			c3.6,2.1,8,5.4,6.6,9.2c-2.5,6.8-1,14.8,3.5,20.4c0.3,2.7,2.6,5.2,4.3,7.2c1.5,1.8,3.2,3.4,5.2,4.5c0.5,1,1,2.1,1.5,3.1
			c-1.2,1.6-1.1,4.2-0.9,6c0.1,1.3,0.3,2.7,0.7,3.9c0.4,1.1,1.1,2,1.5,3.2c1.5,6.7,4,13.2,7.3,19.1c1.3,2.3,2.8,4.8,2.3,7.5
			c-2.5,14-1.1,28.8,4.1,42c1.6,4.1-0.5,8.6-2.4,12.6c-2.8,5.6-5.4,11.5-6.1,17.7c-0.7,6.2,0.7,13,5.2,17.4
			c5.3,5.3,13.3,6.2,20.7,6.7c3.7,0.2,7.4,0.4,10.9-0.7c8-2.5,12.5-10.9,16.1-18.5c4.2-8.8,8.1-20,1.9-27.5
			C405.4,293.1,407.3,289,408.9,285.8z M73.7,338.6c-5.9,4.3-13.9,3.3-21,1c-1.7-1.2-3.4-2.8-5-3.9c-3-2.1-5.4-4.3-6.9-7.7
			c-0.1-0.2-0.2-0.3-0.3-0.3c-0.3-0.7-0.5-1.5-0.8-2.2c-2.2-5.4-4.3-10.8-6.5-16.2c-0.1-0.2-0.2-0.3-0.3-0.5c-0.4-1.6-0.4-3.3-0.3-5
			c0.2-0.2,0.2-0.5,0.2-0.7c2.2-2.7,4.5-5.4,6.7-8.1c11.8-0.5,23.7-1,35.5-1.6c1.5-0.1,3.2-0.1,4.3,0.8c1.5,1.2,1.7,3.4,1.7,5.3
			c0,5.1,0.1,10.3,0.1,15.4C81.2,323.6,80.6,333.5,73.7,338.6z M84.1,260.4c0.5,4.1,0.4,8.7,2.4,12.1c0.2,2.1-0.8,4.8-1.3,6.7
			c-0.4,1.7-1.8,4.2-3,5.3c-0.1,0.1-0.1,0.1-0.1,0.2c-5.9,4.8-15.2,6.3-23.2,7c-8.3,0.7-18.8,0.2-22.4-7.3
			c-1.8-3.6-1.3-7.9-0.8-11.9c1.2-9.5,2.9-19.9,10.3-26c8.5,5.4,19.2,7.1,29,4.6C79.7,249.7,83.5,255.5,84.1,260.4z M93,214.7
			c-0.7,12.3-5.3,25.3-15.8,31.7c-10.5,6.4-27.2,2.5-30.3-9.4c-3.3-12.5,0.2-26.5,8.9-36.1c0.9-0.3,1.6-0.8,2.4-1.3
			c1.2-0.7,2.4-1.5,3.6-2.3c0.1,0,0.1-0.1,0.1-0.1c2.2,3.2,5.3,5.6,9.2,6.4c7.5,1.6,18-1.8,21.3,5.2C93.2,210.6,93.1,212.7,93,214.7
			z M102,194.9c-0.4,0.1-0.6,0.5-0.7,0.9c0,0,0,0,0,0.1c-0.7,0.7-1.3,1.4-2,2.1c-0.9,0.9-1.9,1.9-3,2.6c-0.5,0.3-1,0.4-1.5,0.6
			c-4.2-0.2-8.4-0.4-12.5-0.7c-6.7-0.3-14.3-1.1-18.5-6.4c-6.7-8.4,0-20.5,6.6-29c3.2-4,7.5-8.5,12.5-7.4
			c10.3,2.3,22.3,6.3,24.9,16.5C109.7,181.4,105.9,188.6,102,194.9z M123.9,148.8c-3.2,5.8-8,11.5-14.5,12.7
			c-4.4,0.8-8.9-0.6-13.1-2c-3-1-6.1-2-8.5-4c-5.1-4.1-6.5-11.6-4.7-17.8c1.8-6.3,6.4-11.4,11.5-15.5c1.3-1.1,2.7-2.1,4.2-2.8
			c5.1-2.4,11.8-1,15.5,3.2c2.1,2.4,5.7,2.8,8.3,4.5c3.3,2.2,5,6.4,4.9,10.4C127.4,141.5,125.8,145.3,123.9,148.8z M143,105
			c0.8,3,1.6,6,1.4,9.1s-1.6,6.2-4.1,7.9c-2.5,1.7-5.6,1.8-8.6,1.8c-4,0.1-8.1,0.1-11.6-1.5c-4-1.8-6.9-5.6-8.4-9.8
			c-1.5-4.1-1.7-8.6-1.6-13c0.2-4.3,0.8-9,3.8-12.2c4.7-5.2,13.5-4.5,19-0.1C138.3,91.4,141,98.3,143,105z M169.3,97.2
			c-3.9,2.5-9.2,1.3-13.1-1.1s-7.3-5.7-11.5-7.8c-4.5-2.2-10.4-3.4-12.3-8c-2.2-5.1,2.2-10.6,6.5-14.1c2.3-1.9,4.8-3.6,7.3-5.2
			c4.6-2.9,9.8-5.5,15.3-5.2s11,4.3,11.4,9.8c0.1,1.8-0.3,3.5-0.5,5.2c-0.4,4.6,1,9.2,1.4,13.9C174.3,89.4,173.2,94.7,169.3,97.2z
			 M215.9,55.6c-0.9,3.8-1.7,7.6-2.6,11.4c-0.9,4-1.8,8.1-4,11.6c-2.2,3.5-5.8,6.4-9.9,6.4c-5.8,0.1-10.2-4.9-13.8-9.5
			c-4.6-5.9-9.2-12-11.4-19.2c-0.6-2-1-4.2-0.1-6.1c1-2.1,3.4-3.2,5.6-4c6.5-2.4,13.2-4.1,20-5c3.1-0.4,6.3-0.7,9.4,0.1
			c3,0.8,5.9,2.8,7,5.7C217.1,49.8,216.5,52.8,215.9,55.6z M253.2,78.2c-2.8,3.4-6.1,7.1-10.5,7.4c-7.2,0.6-11.7-7.5-14.3-14.3
			c-1.9-5-3.9-10.1-5.8-15.1c-1.4-3.6-2.7-7.7-0.9-11c2-3.9,7.2-4.9,11.6-5.1c9.6-0.4,19.3,0.9,28.5,3.6c2.6,1.2,5.4,2.4,7.4,4.3
			c1,1,2,1.8,3,2.6C266.5,60.3,260.2,69.5,253.2,78.2z M285.7,94.2c-4.4,1.9-10.3,3.5-13.3-0.2c-1.7-2-1.8-5-1.7-7.6l0.4-23.8
			c0.1-5.1,5.8-8.5,10.8-8.2c5,0.4,9.5,3.4,13.6,6.3c2.6,1.9,5.3,3.7,7.9,5.6c4.3,3,9,7.2,8.1,12.3c-0.8,4.4-5.5,6.9-9.7,8.6
			C296.5,89.6,291.1,91.9,285.7,94.2z M305.4,123.7c-2.5-0.8-4.9-2.2-6.6-4.2c-4-4.9-3-12.1-0.9-18c1.7-4.8,4.3-9.8,9-11.6
			c3.4-1.3,7.1-0.7,10.7-0.6c4,0.2,8-0.2,11.8,1.1c3.8,1.2,7.2,4.7,6.8,8.6c-0.8,7.5-4,14.8-9.7,19.8
			C320.7,123.7,312.5,126,305.4,123.7z M322.8,157.1c-6-5.6-10.1-13.2-11.6-21.2c0-1.1,0-2.1,0-3.2c0.1-1.8,0.7-2.9,1.8-4.2
			c0.2-0.2,0.2-0.4,0.2-0.6c8-0.9,15.2-5.7,21.2-11.1c1.9,1.1,3.9,2.1,6,2.8c3.1,1.8,6.6,3.6,9.3,5.9c0.7,0.6,1.2,1.4,1.9,2
			c0.2,0.2,0.4,0.3,0.6,0.5c0,0,0,0,0,0c0.7,0.5,1.4,1,2,1.5c0.4,0.6,0.8,1.2,1.1,1.8c0.2,0.3,0.5,0.5,0.8,0.5
			c3,4.4,3.6,10.5,1.6,15.5c-2.6,6.8-8.9,11.6-15.7,14.1c-3,1.1-6.1,1.7-9.3,1.3C329,162.1,325.6,159.8,322.8,157.1z M341.6,198.1
			c-1-1.1-2.5-2.8-3.5-4.5l-0.8-2.2c0-0.1,0-0.1,0-0.2c0-0.3-0.1-0.5-0.3-0.7l-1.3-3.8c-1.6-4.7-3.3-9.8-1.5-14.5
			c3.7-9.8,18.7-9.8,24.5-18.5c2.3-3.4,7.5-0.5,10.1,2.7c5.9,7.2,10.8,15.2,14.5,23.7c0.9,2,1.7,4.1,1.4,6.3c-0.5,4.3-5,6.8-9,8.6
			c-10.1,4.6-21.5,9.2-31.8,5.3C343.1,199.7,342.3,198.9,341.6,198.1z M347.3,212.8c-0.2-1.5-0.2-3.3,0.2-4.5
			c11.8-4.2,23.7-8.3,35.5-12.5c1.7-0.6,3.4-1.2,5.2-0.9c2.3,0.3,4.2,2.1,5.6,4c4.5,6.2,5.3,14.2,5.9,21.8
			c0.4,5.3,0.7,11.2-2.7,15.2c-2.3,2.8-5.9,4.1-9.4,5.1c-5.9,1.7-12,2.8-18.2,3.3c-3.1,0.2-6.5,0.2-8.8-1.9
			c-1.3-1.2-2.1-2.9-2.8-4.6C354.3,229.6,350.8,221.2,347.3,212.8z M360.8,269.5c-0.6-3.5-2-6.9-2.5-10.4s0.2-7.6,3-9.8
			c1.9-1.4,4.3-1.8,6.6-2c8.9-0.7,18.5,0.3,25.9-4.8c3-2,7.2-0.5,9.8,2.1c7.1,6.8,6.6,18.1,5.7,27.9c-0.7,7.5-2.3,16.3-9.1,19.5
			c-2.9,1.4-6.1,1.4-9.3,1.4c-3.8,0-7.6,0.1-11.4,0.1c-5.3,0-11.3-0.2-15-4.1C359.9,284.3,361.9,276.3,360.8,269.5z M402.2,323.4
			c-2.2,4.8-4.6,9.9-9,12.8c-5.7,3.8-13.2,3-20,1.9c-4-0.7-8.1-1.4-11.6-3.6s-6.2-5.9-5.8-10c0.6-7.6,2.2-15.1,4.8-22.3
			c0.9-2.4,2.1-5,4.5-6c1.7-0.7,3.6-0.3,5.4,0c9.6,1.7,19.4,1.4,28.9-0.6c1.3-0.3,2.7-0.6,4-0.3c2.4,0.7,3.6,3.4,4,5.9
			C408.6,308.9,405.3,316.4,402.2,323.4z"/>
	<path id="XMLID_33_" fill="#010101" d="M79.4,509.8c0.8,0.4,0.3,1.7-0.6,1.9c-0.8,0.2-1.7-0.2-2.6-0.3c-3.9-0.5-6.7,4.6-10.6,4.6
			c0-1.1,0.7-2,1.3-2.8c2-2.6,4-5.1,6-7.7C73.4,508.4,76.5,510.5,79.4,509.8z"/>
	<path id="XMLID_32_" fill="#010101" d="M64.9,501.7c0.4-2.9,0.9-5.8,1.3-8.7c0.2-1.2,0.5-2.6,1.7-3c2.3,3.5,6.6,5.5,10.8,5
			c-1.9,2.6-6,1.8-9,0.7C69.5,498.5,67.5,501.1,64.9,501.7z"/>
	<path id="XMLID_30_" fill="#010101" d="M380.9,376.7c0.2-0.9,1.6-0.7,2.1,0.1s0.2,1.7,0.2,2.6c-0.3,4.6,4.5,8.7,9,7.8
			c-0.7,1.9-2.6,3.2-4.6,3.2C383.2,387.4,380.5,382,380.9,376.7z"/>
	<path id="XMLID_25_" fill="#010101" d="M339.6,130.4c2.1,3.2,3.6,6.8,4.7,10.5c-4.2-1.5-9.2,2.8-8.3,7.2c-2-0.7-2.5-3.5-1.7-5.5
			c0.8-2,2.3-3.6,3.3-5.5c1-1.9,1.3-4.5-0.2-5.9C338.1,130.9,338.8,130.7,339.6,130.4z"/>
	<path id="XMLID_21_" fill="#010101" d="M381.7,454.8c-1.1-0.5-0.7-2.4,0.4-3.1c1.1-0.7,2.4-0.7,3.5-1.3c3-1.5,3.3-5.5,3.2-8.8
			c1.3-0.3,2.3,1.4,2.2,2.8c0,1.4-0.5,2.9,0.2,4c0.8,1.4,2.7,1.5,4.2,2c1.5,0.5,3.1,2.2,2.1,3.5
			C392.5,451.9,386.5,452.2,381.7,454.8z"/>
	<path id="XMLID_20_" fill="#010101" d="M386.8,329.1c0.4-5-2.7-10.1-7.4-12.1c0.1-1.4,2.3-1,3.6-0.6c2.7,0.9,5.8,0.1,7.7-2
			c1.2,0.2,1.1,2.1,0.3,3c-0.8,0.9-2.1,1.4-2.7,2.5c-0.9,1.7,0.4,3.6,1,5.4S388.4,330,386.8,329.1z"/>
	<path id="XMLID_19_" fill="#010101" d="M113.4,601.5c-0.9-0.8-0.7-2.2-0.4-3.3c0.4-2,0.8-4,1.2-5.9c0.9-4.5,3.8-8.6,7.7-10.9
			c1,1.4,0.4,3.4-0.7,4.8s-2.5,2.5-3.3,4c-1,1.9-1,4.1-1.3,6.2C116.3,598.5,115.4,600.8,113.4,601.5z"/>
	<path id="XMLID_18_" fill="#010101" d="M388.3,481.6c-0.7,3-1.5,6.2-3.5,8.5c-2.1,2.3-5.9,3.4-8.4,1.5c5.6-2.1,9.5-8.1,9.2-14.1
			c0.7-0.8,2.2-0.3,2.7,0.7C388.8,479.3,388.6,480.5,388.3,481.6z"/>
	<path id="XMLID_15_" fill="#010101" d="M155,66.8c1.3-0.8,3.7-1,3.7,0.5c-5.6,3.5-11.1,7-16.8,10.4c-1.6-1,0.1-3.4,1.7-4.3
			C147.4,71.2,151.2,69,155,66.8z"/>
	<path id="XMLID_13_" fill="#010101" d="M56,411.5c-1.4-1.5,0.9-3.6,2.6-4.9c3.5-2.6,5.3-7.3,4.4-11.6c0.9-1,2.8-0.5,3.4,0.7
			c0.6,1.2,0.4,2.7-0.1,4C64.7,404.8,60.8,409,56,411.5z"/>
	<path id="XMLID_7_" fill="#010101" d="M55,311.6c-1.1,2.8-3.7,4.9-6.7,5.5c2.3-2.7,3.9-6.1,4.5-9.7c2.3,0.8,4.7,1.6,7,2.4
			c0.9,0.3,2.1,1.3,1.4,2c-1.2,1.4-0.2,3.6,0.4,5.3c0.7,1.8,0.4,4.5-1.5,4.6C59.7,317.9,57.8,314.3,55,311.6z"/>
	<path id="XMLID_6_" fill="#010101" d="M47.9,271.6c1.3-4.4,3-8.8,4.9-13c1.6,0.1,2.4,2.2,2,3.7c-0.4,1.6-1.5,2.9-2,4.4
			c-0.6,1.5-0.3,3.6,1.1,4.2c2.7,1.1,4.3,4.2,3.8,7.1c-1,1-2.2-0.9-2.6-2.2C54.3,272.8,50.8,270.2,47.9,271.6z"/>
</svg>
